PERFORMER "Ennio Morricone"
TITLE "Nuovo cinema Paradiso"
REM MUSICBRAINZ_ALBUM_ID 005bf251-50e5-4bde-b6c4-7b526856546c
REM MUSICBRAINZ_ALBUM_ARTIST_ID a16e47f5-aa54-47fe-87e4-bb8af91a9fdd
REM DATE 2003
FILE "https://www.youtube.com/watch?v=-6sNES3K14M" MP3
  TRACK 01 AUDIO
    PERFORMER "Ennio Morricone"
    TITLE "Nuovo cinema Paradiso (Titoli)"
    REM MUSICBRAINZ_TRACK_ID 484ede0b-f725-3dc2-bb40-f2680d29da61
    REM MUSICBRAINZ_ARTIST_ID a16e47f5-aa54-47fe-87e4-bb8af91a9fdd
    INDEX 01 00:00:00
  TRACK 02 AUDIO
    PERFORMER "Ennio Morricone"
    TITLE Maturità
    REM MUSICBRAINZ_TRACK_ID be29ac27-2618-3766-a5b5-fb2c1af35c27
    REM MUSICBRAINZ_ARTIST_ID a16e47f5-aa54-47fe-87e4-bb8af91a9fdd
    INDEX 01 02:30:00
  TRACK 03 AUDIO
    PERFORMER "Andrea Morricone"
    TITLE "Tema d'amore"
    REM MUSICBRAINZ_TRACK_ID 43e3f2d2-555b-352e-aebb-b5a17982440b
    REM MUSICBRAINZ_ARTIST_ID a9f6d2d3-c260-431c-8a37-b53abd2dbb41
    INDEX 01 04:49:74
  TRACK 04 AUDIO
    PERFORMER "Ennio Morricone"
    TITLE "Infanzia e maturità"
    REM MUSICBRAINZ_TRACK_ID c8227664-8f72-3ab2-910c-58f96d2d8b4e
    REM MUSICBRAINZ_ARTIST_ID a16e47f5-aa54-47fe-87e4-bb8af91a9fdd
    INDEX 01 06:23:00
  TRACK 05 AUDIO
    PERFORMER "Ennio Morricone"
    TITLE Ripensandola
    REM MUSICBRAINZ_TRACK_ID 94f03a4d-bf57-35f2-a73a-5d0c9a07f4f8
    REM MUSICBRAINZ_ARTIST_ID a16e47f5-aa54-47fe-87e4-bb8af91a9fdd
    INDEX 01 08:37:74
  TRACK 06 AUDIO
    PERFORMER "Ennio Morricone"
    TITLE "Cinema in fiamme (extended version)"
    REM MUSICBRAINZ_TRACK_ID 068fd38f-ac9b-36ad-bdb7-cdf6e091f0e2
    REM MUSICBRAINZ_ARTIST_ID a16e47f5-aa54-47fe-87e4-bb8af91a9fdd
    INDEX 01 09:58:00
  TRACK 07 AUDIO
    PERFORMER "Andrea Morricone"
    TITLE "Tema d'amore"
    REM MUSICBRAINZ_TRACK_ID eb5a8545-629d-3f11-b68a-faad310c65b6
    REM MUSICBRAINZ_ARTIST_ID a9f6d2d3-c260-431c-8a37-b53abd2dbb41
    INDEX 01 13:28:00
  TRACK 08 AUDIO
    PERFORMER "Ennio Morricone"
    TITLE "Totò e Alfredo"
    REM MUSICBRAINZ_TRACK_ID 27957603-c73d-30ed-b031-9cf040207fdf
    REM MUSICBRAINZ_ARTIST_ID a16e47f5-aa54-47fe-87e4-bb8af91a9fdd
    INDEX 01 16:17:00
  TRACK 09 AUDIO
    PERFORMER "Ennio Morricone"
    TITLE "Dopo il crollo (extended version)"
    REM MUSICBRAINZ_TRACK_ID 04926eff-a4b9-37fa-99d5-d5ccb4274135
    REM MUSICBRAINZ_ARTIST_ID a16e47f5-aa54-47fe-87e4-bb8af91a9fdd
    INDEX 01 18:00:00
  TRACK 10 AUDIO
    PERFORMER "Ennio Morricone"
    TITLE "Tema d'amore per Nata"
    REM MUSICBRAINZ_TRACK_ID 9a756641-4a45-31bb-ad4c-fcec7fb1d47d
    REM MUSICBRAINZ_ARTIST_ID a16e47f5-aa54-47fe-87e4-bb8af91a9fdd
    INDEX 01 22:18:00
  TRACK 11 AUDIO
    PERFORMER "Ennio Morricone"
    TITLE "Visita al cinema"
    REM MUSICBRAINZ_TRACK_ID 77e275a6-c9de-3260-90a9-975397d56351
    REM MUSICBRAINZ_ARTIST_ID a16e47f5-aa54-47fe-87e4-bb8af91a9fdd
    INDEX 01 26:26:74
  TRACK 12 AUDIO
    PERFORMER "Ennio Morricone"
    TITLE "Prima gioventù"
    REM MUSICBRAINZ_TRACK_ID 7de5588a-6d64-3769-b97d-0715a927ea3c
    REM MUSICBRAINZ_ARTIST_ID a16e47f5-aa54-47fe-87e4-bb8af91a9fdd
    INDEX 01 28:52:00
  TRACK 13 AUDIO
    PERFORMER "Ennio Morricone"
    TITLE "Quattro interludi"
    REM MUSICBRAINZ_TRACK_ID ec770373-1086-3e3b-ac5b-e0f5836944a9
    REM MUSICBRAINZ_ARTIST_ID a16e47f5-aa54-47fe-87e4-bb8af91a9fdd
    INDEX 01 31:08:74
  TRACK 14 AUDIO
    PERFORMER "Ennio Morricone"
    TITLE "Fuga, ricerca e ritorno"
    REM MUSICBRAINZ_TRACK_ID a1706e53-d712-31ae-b086-0887b5c7f378
    REM MUSICBRAINZ_ARTIST_ID a16e47f5-aa54-47fe-87e4-bb8af91a9fdd
    INDEX 01 33:07:00
  TRACK 15 AUDIO
    PERFORMER "Ennio Morricone"
    TITLE "Dal sex appeal al primo Fellini"
    REM MUSICBRAINZ_TRACK_ID cbba95fe-8b14-36f7-bf57-ab5bb6c6a58f
    REM MUSICBRAINZ_ARTIST_ID a16e47f5-aa54-47fe-87e4-bb8af91a9fdd
    INDEX 01 35:15:00
  TRACK 16 AUDIO
    PERFORMER "Andrea Morricone"
    TITLE "Tema d'amore"
    REM MUSICBRAINZ_TRACK_ID a990d504-bc3f-3f45-a660-04794f98c4c9
    REM MUSICBRAINZ_ARTIST_ID a9f6d2d3-c260-431c-8a37-b53abd2dbb41
    INDEX 01 38:44:00
  TRACK 17 AUDIO
    PERFORMER "Ennio Morricone"
    TITLE "Proiezione a due"
    REM MUSICBRAINZ_TRACK_ID 4ca01216-cea9-35b1-8863-0f2f9a79e28b
    REM MUSICBRAINZ_ARTIST_ID a16e47f5-aa54-47fe-87e4-bb8af91a9fdd
    INDEX 01 42:04:00
  TRACK 18 AUDIO
    PERFORMER "Ennio Morricone"
    TITLE "Totò e Alfredo"
    REM MUSICBRAINZ_TRACK_ID 30bc07de-289c-32e0-8afb-d89866f817da
    REM MUSICBRAINZ_ARTIST_ID a16e47f5-aa54-47fe-87e4-bb8af91a9fdd
    INDEX 01 44:12:00
  TRACK 19 AUDIO
    PERFORMER "Ennio Morricone"
    TITLE "Tema della bicicletta"
    REM MUSICBRAINZ_TRACK_ID a5b9cac0-0341-3b36-bd85-87b99ff4c8b4
    REM MUSICBRAINZ_ARTIST_ID a16e47f5-aa54-47fe-87e4-bb8af91a9fdd
    INDEX 01 45:32:74
  TRACK 20 AUDIO
    PERFORMER "Ennio Morricone"
    TITLE "Visita al cinema"
    REM MUSICBRAINZ_TRACK_ID b3624dd6-27a2-3155-8690-d01414effb5c
    REM MUSICBRAINZ_ARTIST_ID a16e47f5-aa54-47fe-87e4-bb8af91a9fdd
    INDEX 01 46:15:74
  TRACK 21 AUDIO
    PERFORMER "Ennio Morricone"
    TITLE Maturità
    REM MUSICBRAINZ_TRACK_ID cd4f92aa-2566-39aa-8389-13f16b7cb64e
    REM MUSICBRAINZ_ARTIST_ID a16e47f5-aa54-47fe-87e4-bb8af91a9fdd
    INDEX 01 48:20:00
  TRACK 22 AUDIO
    PERFORMER "Ennio Morricone"
    TITLE "Per Elena"
    REM MUSICBRAINZ_TRACK_ID 408b4145-088f-3604-9a22-6b5006734189
    REM MUSICBRAINZ_ARTIST_ID a16e47f5-aa54-47fe-87e4-bb8af91a9fdd
    INDEX 01 49:37:00
  TRACK 23 AUDIO
    PERFORMER "Ennio Morricone"
    TITLE "Nuovo cinema Paradiso"
    REM MUSICBRAINZ_TRACK_ID 2cec42b7-6fd9-36ec-987d-f5d902ce3b53
    REM MUSICBRAINZ_ARTIST_ID a16e47f5-aa54-47fe-87e4-bb8af91a9fdd
    INDEX 01 51:28:00
    REM COMMENT 51:25 sur YouTube
